# AST/ASF file generated using VICON BodyLanguage
# -----------------------------------------------
:version 1.10
:name VICON
:units
  mass 1.0
  length 0.45
  angle deg
:documentation
   .ast/.asf automatically generated from VICON data using
   VICON BodyBuilder and BodyLanguage model FoxedUp or BRILLIANT.MOD
:root
   order TX TY TZ RX RY RZ
   axis XYZ
   position 0 0 0  
   orientation 0 0 0 
:bonedata
  begin
     id 1 
     name lhipjoint
     direction 0.584852 -0.759097 0.285867 
     length 2.43633 
     axis 0 0 0  XYZ
  end
  begin
     id 2 
     name lfemur
     direction 0.34202 -0.939693 0  
     length 7.14704  
     axis 0 0 20  XYZ
    dof rx ry rz
    limits (-160.0 20.0)
           (-70.0 70.0)
           (-60.0 70.0)
  end
  begin
     id 3 
     name ltibia
     direction 0.342022 -0.939692 0   
     length 7.68483   
     axis 0 0 20   XYZ
    dof rx
    limits (-10.0 170.0)
  end
  begin
     id 4 
     name lfoot
     direction 0.0999605 -0.274639 0.956337   
     length 2.40452   
     axis -90 7.62852e-016 20   XYZ
    dof rx rz
    limits (-45.0 90.0)
           (-70.0 20.0)
  end
  begin
     id 5 
     name ltoes
     direction 1.53468e-011 -4.21881e-011 1   
     length 1.19837   
     axis -90 7.62852e-016 20   XYZ
    dof rx
    limits (-90.0 20.0)
  end
  begin
     id 6 
     name rhipjoint
     direction -0.569886 -0.769002 0.289597   
     length 2.40495  
     axis 0 0 0  XYZ 
  end
  begin
     id 7 
     name rfemur
     direction -0.34202 -0.939693 0   
     length 7.45086   
     axis 0 0 -20   XYZ
    dof rx ry rz
    limits (-160.0 20.0)
           (-70.0 70.0)
           (-70.0 60.0)
  end
  begin
     id 8 
     name rtibia
     direction -0.34202 -0.939693 0   
     length 7.76831   
     axis 0 0 -20   XYZ
    dof rx
    limits (-10.0 170.0)
 end
 begin
     id 9 
     name rfoot
     direction -0.0798572 -0.219406 0.97236   
     length 2.35911  
     axis -90 -7.62852e-016 -20   XYZ
    dof rx rz
    limits (-45.0 90.0)
           (-20.0 70.0)
  end
  begin
     id 10 
     name rtoes
     direction -1.53469e-011 -4.21728e-011 1   
     length 1.18261   
     axis -90 -7.62852e-016 -20   XYZ
    dof rx
    limits (-90.0 20.0)
  end
  begin
     id 11 
     name lowerback
     direction 0.0242088 0.999437 0.0232389   
     length 2.1561   
     axis 0 0 0   XYZ
    dof rx ry rz
    limits (-20.0 45.0)
           (-30.0 30.0)
           (-30.0 30.0)
  end
  begin
     id 12 
     name upperback
     direction -0.0356893 0.999013 -0.0264323   
     length 2.14431   
     axis 0 0 0   XYZ
    dof rx ry rz
    limits (-20.0 45.0)
           (-30.0 30.0)
           (-30.0 30.0)
  end
  begin
     id 13 
     name thorax
     direction -0.0472163 0.998194 -0.0371284   
     length 2.16169   
     axis 0 0 0   XYZ
    dof rx ry rz
    limits (-20.0 45.0)
           (-30.0 30.0)
           (-30.0 30.0)
  end
  begin
     id 14 
     name lowerneck
     direction 0.00863244 0.999921 0.00911972   
     length 1.58651   
     axis 0 0 0   XYZ
    dof rx ry rz
    limits (-20.0 45.0)
           (-30.0 30.0)
           (-30.0 30.0)
  end
  begin
     id 15 
     name upperneck
     direction 0.149523 0.979068 -0.138086   
     length 1.57486   
     axis 0 0 0   XYZ
    dof rx ry rz
    limits (-20.0 45.0)
           (-30.0 30.0)
           (-30.0 30.0)
  end
  begin
     id 16
     name head
     direction 0.0445219 0.997708 -0.0509576  
     length 1.6019  
     axis 0 0 0   XYZ
    dof rx ry rz
    limits (-20.0 45.0)
           (-30.0 30.0)
           (-30.0 30.0)
  end
  begin
     id 17 
     name lclavicle
     direction 0.911271 0.381667 -0.154644  
     length 3.80848  
     axis 0 0 0   XYZ
    dof ry rz
    limits (-20.0 10.0)
           (0.0 20.0)
  end
  begin
     id 18 
     name lhumerus
     direction 1 -4.49003e-011 2.1308e-027   
     length 5.19069   
     axis 180 -30 -90   XYZ
    dof rx ry rz
    limits (-60.0 90.0)
           (-90.0 90.0)
           (-90.0 90.0)
  end
  begin
     id 19
     name lradius
     direction 1 -4.48914e-011 4.01554e-027   
     length 3.30016   
     axis 180 -30 -90   XYZ
    dof rx
    limits (-10.0 170.0)
  end
  begin
     id 20
     name lwrist
     direction 1 -4.49003e-011 1.1934e-026   
     length 1.65008   
     axis -8.46377e-015 90 90   XYZ
    dof ry
    limits (-180.0 0.0)
 end
  begin
     id 21 
     name lhand
     direction 1 -4.49034e-011 2.38659e-026   
     length 0.707698   
     axis -1.52313e-014 90 90   XYZ
    dof rx rz
    limits (-90.0 90.0)
           (-45.0 45.0)
  end
  begin
     id 22 
     name lfingers
     direction 1 -4.48691e-011 4.77775e-026   
     length 0.570564   
     axis -3.04623e-014 90 90   XYZ
    dof rx
    limits (0.0 90.0)
  end
  begin
     id 23
     name lthumb
     direction 0.707107 -6.34832e-011 0.707107   
     length 0.819219   
     axis -90 45 -1.62303e-014   XYZ
    dof rx rz
    limits (-45.0 45.0)
           (-45.0 45.0)
  end
  begin
     id 24 
     name rclavicle
     direction -0.815579 0.573708 -0.0754329   
     length 3.54371  
     axis 0 0 0   XYZ 
    dof ry rz
    limits (-10.0 20.0)
           (-20.0 0.0)
  end
  begin
     id 25 
     name rhumerus
     direction -1 -4.48956e-011 3.05351e-028  
     length 5.23924   
     axis 180 30 90   XYZ
    dof rx ry rz
    limits (-90.0 60.0)
           (-90.0 90.0)
           (-90.0 90.0)
  end
  begin
     id 26 
     name rradius
     direction -1 -4.49013e-011 3.53849e-027   
     length 3.32953   
     axis 180 30 90   XYZ
    dof rx
    limits (-10.0 170.0)
  end
  begin
     id 27 
     name rwrist
     direction -1 -4.48901e-011 1.19374e-026   
     length 1.66477   
     axis -8.46377e-015 -90 -90   XYZ
    dof ry
    limits (-180.0 0.0)
  end
  begin
     id 28
     name rhand
     direction -1 -4.48877e-011 2.38764e-026   
     length 0.607414   
     axis -1.52313e-014 -90 -90   XYZ
    dof rx rz
    limits (-90.0 90.0)
           (-45.0 45.0)
  end
  begin
     id 29
     name rfingers
     direction -1 -4.48882e-011 4.77521e-026   
     length 0.489712   
     axis -3.04623e-014 -90 -90   XYZ
    dof rx
    limits (0.0 90.0)
  end
  begin
     id 30
     name rthumb
     direction -0.707107 -6.34974e-011 0.707107   
     length 0.703132   
     axis -90 -45 1.62303e-014   XYZ
    dof rx rz
    limits (-45.0 45.0)
           (-45.0 45.0)
  end
:hierarchy
  begin
    root lhipjoint rhipjoint lowerback
    lhipjoint lfemur
    lfemur ltibia
    ltibia lfoot
    lfoot ltoes
    rhipjoint rfemur
    rfemur rtibia
    rtibia rfoot
    rfoot rtoes
    lowerback upperback
    upperback thorax
    thorax lowerneck lclavicle rclavicle
    lowerneck upperneck
    upperneck head
    lclavicle lhumerus
    lhumerus lradius
    lradius lwrist
    lwrist lhand lthumb
    lhand lfingers
    rclavicle rhumerus
    rhumerus rradius
    rradius rwrist
    rwrist rhand rthumb
    rhand rfingers
  end

#!OML:ASF E:\VariousWalksJay\Project 1\Capture day 1\Session 1\Actor2.ASF
:FULLY-SPECIFIED
:DEGREES
876
root 9.00167 16.7564 41.3166 176.744 -49.3835 -173.547
lowerback -0.729147 0.119177 4.38654
upperback 3.546 -0.0138509 -0.587672
thorax 4.07498 0.121082 -3.06986
lowerneck -9.14381 -5.00265 -4.58274
upperneck 11.3393 -7.917 11.3479
head 5.5657 -3.44808 3.68062
rclavicle 2.49475e-014 -9.14409e-015
rhumerus -41.7054 9.13456 -87.9333
rradius 43.9933
rwrist 4.98394
rhand -18.0986 -1.6806
rfingers 7.12502
rthumb 8.17521 -31.5024
lclavicle 2.49475e-014 -9.14409e-015
lhumerus -34.333 -13.8676 83.4896
lradius 33.0625
lwrist 7.42898
lhand -7.77639 -8.58663
lfingers 7.12502
lthumb 18.124 20.589
rfemur -11.4265 -3.65866 24.1966
rtibia 34.5108
rfoot -24.6634 -16.3112
rtoes -5.42939
lfemur -9.72317 4.74953 -15.2118
ltibia 29.8022
lfoot -21.3335 2.57406
ltoes -6.14068
877
root 8.99852 16.7554 41.3178 176.863 -49.3025 -173.661
lowerback -0.718286 0.111468 4.35265
upperback 3.50036 -0.0183279 -0.633346
thorax 4.02059 0.117295 -3.09821
lowerneck -9.131 -5.06531 -4.59968
upperneck 11.4399 -8.02971 11.4225
head 5.60813 -3.4991 3.69693
rclavicle 1.02772e-013 -2.34566e-014
rhumerus -41.6952 9.03315 -87.9469
rradius 43.9839
rwrist 5.28461
rhand -18.6074 -1.59774
rfingers 7.12502
rthumb 7.68413 -31.4381
lclavicle 1.02772e-013 -2.34566e-014
lhumerus -34.3922 -14.0531 83.5307
lradius 33.0622
lwrist 7.38287
lhand -7.67821 -8.48154
lfingers 7.12502
lthumb 18.2184 20.6853
rfemur -11.5023 -3.6239 24.1095
rtibia 34.5893
rfoot -24.6469 -16.2954
rtoes -5.58177
lfemur -9.74087 4.78629 -15.31
ltibia 29.7985
lfoot -21.3435 2.66949
ltoes -6.25947
878
root 8.99565 16.7543 41.3213 176.983 -49.1807 -173.71
lowerback -0.773445 0.0955631 4.28998
upperback 3.4617 -0.0388926 -0.60202
thorax 4.00919 0.104243 -3.0313
lowerneck -9.12202 -5.11 -4.66416
upperneck 11.4639 -8.08148 11.4067
head 5.62011 -3.52727 3.69805
rclavicle 1.59028e-015 -6.36111e-015
rhumerus -41.6333 9.21167 -87.9374
rradius 43.9891
rwrist 5.35126
rhand -18.8217 -1.63562
rfingers 7.12502
rthumb 7.47723 -31.4835
lclavicle 1.59028e-015 -6.36111e-015
lhumerus -34.4327 -14.0768 83.6101
lradius 33.0721
lwrist 7.31138
lhand -7.55891 -8.39404
lfingers 7.12502
lthumb 18.3332 20.762
rfemur -11.6455 -3.56989 24.0692
rtibia 34.6666
rfoot -24.6247 -16.2218
rtoes -5.61164
lfemur -9.81875 4.8469 -15.3648
ltibia 29.8076
lfoot -21.3505 2.74982
ltoes -6.38369
879
root 8.99435 16.7539 41.3225 177.106 -49.0992 -173.749
lowerback -0.811619 -0.00390335 4.21326
upperback 3.3625 -0.16506 -0.609102
thorax 3.91615 0.036959 -3.0005
lowerneck -8.94496 -5.06697 -4.56134
upperneck 11.487 -8.04234 11.3566
head 5.58708 -3.51481 3.67265
rclavicle -1.80894e-014 2.38542e-015
rhumerus -41.6784 9.43923 -88.0839
rradius 44.0041
rwrist 5.47016
rhand -18.8042 -1.68681
rfingers 7.12502
rthumb 7.49419 -31.5341
lclavicle -1.80894e-014 2.38542e-015
lhumerus -34.6511 -14.0454 83.5821
lradius 33.1608
lwrist 7.27447
lhand -7.51875 -8.15888
lfingers 7.12502
lthumb 18.3718 20.9935
rfemur -11.7968 -3.60251 24.0437
rtibia 34.7483
rfoot -24.6119 -16.1538
rtoes -5.75943
lfemur -9.89787 4.88204 -15.3896
ltibia 29.8171
lfoot -21.3952 2.71613
ltoes -6.17034
880
root 8.99226 16.7523 41.3239 177.172 -49.0122 -173.753
lowerback -0.841472 -0.0327049 4.18787
upperback 3.33645 -0.203388 -0.585289
thorax 3.90261 0.0163454 -2.96314
lowerneck -8.99615 -5.105 -4.70267
upperneck 11.5431 -8.09882 11.4698
head 5.62849 -3.53876 3.72541
rclavicle -5.81445e-014 7.95139e-015
rhumerus -41.6152 9.45911 -88.0594
rradius 44.0202
rwrist 5.70539
rhand -18.9429 -1.65553
rfingers 7.12502
rthumb 7.36027 -31.5075
lclavicle -5.81445e-014 7.95139e-015
lhumerus -34.6787 -14.156 83.6664
lradius 33.1595
lwrist 7.15906
lhand -7.49213 -8.06985
lfingers 7.12502
lthumb 18.3975 21.0802
rfemur -11.9052 -3.56727 24.0407
rtibia 34.8198
rfoot -24.6057 -16.1246
rtoes -5.80574
lfemur -9.97248 4.95236 -15.4032
ltibia 29.8341
lfoot -21.401 2.75722
ltoes -6.15165
881
root 8.98913 16.7509 41.3257 177.282 -48.9266 -173.879
lowerback -0.844569 -0.0527036 4.0877
upperback 3.32271 -0.226008 -0.598904
thorax 3.8878 0.00185043 -2.9218
lowerneck -8.95297 -5.15691 -4.70403
upperneck 11.5058 -8.17178 11.4927
head 5.61684 -3.57606 3.72721
rclavicle 1.09332e-015 7.95139e-015
rhumerus -41.5903 9.49 -88.0683
rradius 44.0732
rwrist 5.83565
rhand -19.1887 -1.63466
rfingers 7.12502
rthumb 7.12301 -31.4948
lclavicle 1.09332e-015 7.95139e-015
lhumerus -34.6974 -14.2989 83.7295
lradius 33.16
lwrist 7.09557
lhand -7.41635 -8.12257
lfingers 7.12502
lthumb 18.4704 21.0205
rfemur -11.967 -3.53966 23.9368
rtibia 34.8931
rfoot -24.6036 -16.0648
rtoes -5.85374
lfemur -9.9672 4.96768 -15.5114
ltibia 29.8345
lfoot -21.4236 2.88522
ltoes -6.46375
882
root 8.98788 16.7509 41.3265 177.322 -48.8111 -173.87
lowerback -0.817756 -0.0587358 4.08017
upperback 3.28062 -0.231071 -0.586663
thorax 3.82829 -0.00260356 -2.90475
lowerneck -8.97391 -5.21119 -4.78058
upperneck 11.5361 -8.2536 11.5753
head 5.64364 -3.61343 3.75794
rclavicle -5.64548e-014 1.59028e-014
rhumerus -41.5713 9.52593 -88.0696
rradius 44.1345
rwrist 5.91913
rhand -19.1994 -1.70245
rfingers 7.12502
rthumb 7.11269 -31.5629
lclavicle -5.64548e-014 1.59028e-014
lhumerus -34.8056 -14.5402 83.8741
lradius 33.2286
lwrist 6.89705
lhand -7.7068 -7.9748
lfingers 7.12502
lthumb 18.1909 21.1946
rfemur -12.0602 -3.40163 23.962
rtibia 34.9717
rfoot -24.6114 -16.1413
rtoes -6.04072
lfemur -9.99439 5.03132 -15.4984
ltibia 29.8252
lfoot -21.434 2.91114
ltoes -6.40414
883
root 8.9847 16.7507 41.3267 177.477 -48.7193 -173.975
lowerback -0.868 -0.0790657 3.98906
upperback 3.23643 -0.254482 -0.601698
thorax 3.80855 -0.0171153 -2.87008
lowerneck -8.93395 -5.26369 -4.90289
upperneck 11.525 -8.33354 11.7173
head 5.65155 -3.65197 3.81661
rclavicle -7.85199e-014 1.03368e-014
rhumerus -41.5838 9.56732 -88.1005
rradius 44.2242
rwrist 6.05607
rhand -19.3009 -1.70675
rfingers 7.12502
rthumb 7.01469 -31.5705
lclavicle -7.85199e-014 1.03368e-014
lhumerus -34.9042 -14.76 83.9641
lradius 33.3207
lwrist 6.8223
lhand -7.80562 -8.31629
lfingers 7.12502
lthumb 18.0959 20.8619
rfemur -12.1829 -3.27909 23.8926
rtibia 35.0582
rfoot -24.6477 -16.1352
rtoes -5.9268
lfemur -10.0344 5.10791 -15.5758
ltibia 29.8123
lfoot -21.4781 2.89332
ltoes -6.31038
884
root 8.98278 16.7487 41.3304 177.662 -48.6189 -174.124
lowerback -0.870426 -0.113866 3.87683
upperback 3.18613 -0.294614 -0.616831
thorax 3.7541 -0.0414621 -2.82402
lowerneck -8.93182 -5.31807 -5.07598
upperneck 11.5594 -8.41616 11.8776
head 5.68339 -3.69026 3.88832
rclavicle -1.03269e-013 2.10712e-014
rhumerus -41.5559 9.70421 -88.1293
rradius 44.3038
rwrist 6.09503
rhand -19.238 -1.74275
rfingers 7.12502
rthumb 7.07544 -31.6045
lclavicle -1.03269e-013 2.10712e-014
lhumerus -34.9883 -14.9239 84.0466
lradius 33.4115
lwrist 6.78999
lhand -7.61117 -7.83331
lfingers 7.12502
lthumb 18.2829 21.3275
rfemur -12.3224 -3.27403 23.7773
rtibia 35.1486
rfoot -24.6139 -16.0766
rtoes -6.07215
lfemur -10.0984 5.16262 -15.7049
ltibia 29.7894
lfoot -21.4526 2.98471
ltoes -6.48379
885
root 8.9809 16.7472 41.3309 177.706 -48.5117 -174.102
lowerback -0.82463 -0.131354 3.91619
upperback 3.09679 -0.31198 -0.644694
thorax 3.63374 -0.0512825 -2.8749
lowerneck -8.84534 -5.33711 -4.75227
upperneck 11.5471 -8.46786 11.7072
head 5.64846 -3.71743 3.77812
rclavicle -6.75868e-014 1.35174e-014
rhumerus -41.6447 9.7264 -88.2287
rradius 44.4022
rwrist 6.25304
rhand -19.2459 -1.8172
rfingers 7.12502
rthumb 7.06777 -31.6792
lclavicle -6.75868e-014 1.35174e-014
lhumerus -35.1334 -15.1674 84.0968
lradius 33.4904
lwrist 6.72507
lhand -7.72565 -8.17042
lfingers 7.12502
lthumb 18.1728 21.0007
rfemur -12.4451 -3.23464 23.7935
rtibia 35.2413
rfoot -24.5923 -16.0202
rtoes -6.17577
lfemur -10.1415 5.28227 -15.6869
ltibia 29.776
lfoot -21.4601 2.98567
ltoes -6.49989
886
root 8.97637 16.7483 41.3337 177.953 -48.425 -174.355
lowerback -0.798593 -0.162237 3.80678
upperback 3.02446 -0.34301 -0.727466
thorax 3.54096 -0.0706907 -2.89964
lowerneck -8.73931 -5.39552 -4.96466
upperneck 11.5082 -8.54739 11.8879
head 5.64196 -3.76036 3.86554
rclavicle 5.1684e-015 -1.19271e-015
rhumerus -41.6858 9.77503 -88.3222
rradius 44.4788
rwrist 6.43806
rhand -19.654 -1.80607
rfingers 7.12502
rthumb 6.67386 -31.6809
lclavicle 5.1684e-015 -1.19271e-015
lhumerus -35.2864 -15.3377 84.107
lradius 33.5847
lwrist 6.59368
lhand -7.57067 -8.28463
lfingers 7.12502
lthumb 18.3219 20.8725
rfemur -12.5532 -3.16189 23.596
rtibia 35.3352
rfoot -24.5878 -15.9917
rtoes -6.26364
lfemur -10.1604 5.28546 -15.8889
ltibia 29.7777
lfoot -21.5397 3.00285
ltoes -6.25321
887
root 8.9746 16.7464 41.3339 178.007 -48.3171 -174.347
lowerback -0.83277 -0.185967 3.7549
upperback 3.00043 -0.374325 -0.695137
thorax 3.533 -0.0884322 -2.83827
lowerneck -8.71296 -5.4212 -4.98916
upperneck 11.4597 -8.5735 11.8879
head 5.62572 -3.77613 3.86786
rclavicle 5.88403e-014 -1.70955e-014
rhumerus -41.6345 9.93911 -88.3475
rradius 44.5465
rwrist 6.53072
rhand -19.9596 -1.86415
rfingers 7.12502
rthumb 6.37882 -31.7481
lclavicle 5.88403e-014 -1.70955e-014
lhumerus -35.3251 -15.4984 84.2048
lradius 33.6363
lwrist 6.31233
lhand -7.69026 -8.02266
lfingers 7.12502
lthumb 18.2069 21.1452
rfemur -12.6612 -3.08299 23.608
rtibia 35.4201
rfoot -24.6373 -15.9225
rtoes -6.09893
lfemur -10.2236 5.40561 -15.8795
ltibia 29.7994
lfoot -21.5596 2.98731
ltoes -6.20935
